<svg id="Layer_1" data-name="Layer 1" xmlns="http://www.w3.org/2000/svg" viewBox="0 0 511.78 512.21"><defs><style>.cls-1{fill:#141414;}.cls-2{fill:#6a6a6a;}.cls-3{fill:#ddd;}.cls-4{fill:#d9d9d9;}.cls-5{fill:#dcdcdc;}.cls-6{fill:#696969;}.cls-7{fill:#dadada;}.cls-8{fill:#d4d4d4;}.cls-9{fill:#dedede;}.cls-10{fill:#fefefe;}.cls-11{fill:#424242;}.cls-12{fill:#717171;}.cls-13{fill:#9f9f9f;}.cls-14{fill:#cfcfcf;}</style></defs><title>logo</title><path class="cls-1" d="M512,249.32v12.9c-.46,1.26-.1,2.56-.22,3.84v2.44c.25,20.4-3.27,40.23-9,59.72a252.64,252.64,0,0,1-16.53,42.16A258,258,0,0,1,305.72,508.16a182.65,182.65,0,0,1-34.12,3.55c-3.86,0-7.73.12-11.59.17h-7.76c-9.29.05-18.59-.12-27.84-1a192.58,192.58,0,0,1-23.93-4.07,252.41,252.41,0,0,1-49.09-16.28A258,258,0,0,1,94.3,455.32,246.61,246.61,0,0,1,75.43,438.4,257.73,257.73,0,0,1,4.14,305.74,172.42,172.42,0,0,1,.6,272.37c0-2.93-.14-5.86-.17-8.8V248.45c-.51-23.84,3.56-47,10.7-69.65a257,257,0,0,1,40.75-78.58A250.64,250.64,0,0,1,80,69a258.14,258.14,0,0,1,136.18-67A165,165,0,0,1,236.42.31c3.22-.13,6.43-.3,9.66-.22h20.44c22.39-.36,44.1,3.57,65.42,10.18a256.07,256.07,0,0,1,91.8,51,256.64,256.64,0,0,1,87,159.72c.6,4.31.6,8.68.78,13,.13,3.15.4,6.29.25,9.44v2.43C511.89,247,511.55,248.19,512,249.32Z" transform="translate(-0.22 0.12)"/><path class="cls-2" d="M263.89.27l-15.15,0q-.45-.25.06-.36h15.05C264.17,0,264.18.11,263.89.27Z" transform="translate(-0.22 0.12)"/><path class="cls-3" d="M260.42,511.73c0,.12,0,.24,0,.36h-8.6c0-.12,0-.24,0-.37Z" transform="translate(-0.22 0.12)"/><path class="cls-4" d="M.22,248a2.17,2.17,0,0,1,.36,0l0,5.52-.07.38-.26-.29Z" transform="translate(-0.22 0.12)"/><path class="cls-5" d="M.58,264a2.17,2.17,0,0,1-.36,0v-5.59q.27-.47.36.06Z" transform="translate(-0.22 0.12)"/><path class="cls-6" d="M.58,258.41a1.13,1.13,0,0,1-.36-.06v-4.73a.33.33,0,0,1,.33-.09Z" transform="translate(-0.22 0.12)"/><path class="cls-6" d="M511.62,266.14c.06-1.31-.38-2.68.38-3.92v3.87C511.92,266.44,511.79,266.45,511.62,266.14Z" transform="translate(-0.22 0.12)"/><path class="cls-6" d="M512,249.32c-.73-1.12-.35-2.34-.34-3.52.17-.19.28-.16.34.08Z" transform="translate(-0.22 0.12)"/><path class="cls-7" d="M248.8-.12a2.25,2.25,0,0,0-.06.36h-3c0-.12,0-.23,0-.35Z" transform="translate(-0.22 0.12)"/><path class="cls-5" d="M263.89.27a.87.87,0,0,1,0-.39h3c0,.12,0,.24,0,.36Z" transform="translate(-0.22 0.12)"/><path class="cls-8" d="M512,245.88a.38.38,0,0,0-.34-.08c0-.84,0-1.68,0-2.52a2.17,2.17,0,0,1,.36,0Z" transform="translate(-0.22 0.12)"/><path class="cls-9" d="M511.62,266.14l.38-.05v2.58h-.36C511.63,267.83,511.62,267,511.62,266.14Z" transform="translate(-0.22 0.12)"/><path class="cls-10" d="M493.08,255.84C493.33,386.3,387.69,490.89,260.45,493,126.36,495.19,17.23,386,19.21,252.08,21.09,124.61,125.9,16.93,260.14,18.84,387.86,20.65,493.32,125.74,493.08,255.84Z" transform="translate(-0.22 0.12)"/><path class="cls-11" d="M256.18,473.83c-120,.05-216.46-97.5-217.83-215.3C37,137.93,134.55,37.38,257.14,37.91A217.79,217.79,0,0,1,474.06,256.67C473.68,377.54,375.14,474,256.18,473.83Z" transform="translate(-0.22 0.12)"/><path class="cls-10" d="M455.23,256.05c.37,108.17-87.6,199.12-199,199.1C145.53,455.13,56.63,365.33,57,255c.42-109.75,90.51-200.35,203.13-198.29C368,58.66,455.71,147.53,455.23,256.05Z" transform="translate(-0.22 0.12)"/><path class="cls-12" d="M436,256.11c.12,98.51-80.72,180.72-181.74,179.76-97.37-.93-180-81.19-177.84-184.35C78.35,156.45,157.24,74.92,258.5,76,355.57,77,436.25,157.11,436,256.11Z" transform="translate(-0.22 0.12)"/><path class="cls-10" d="M417.38,256.21c.36,88.12-71.37,161-160.87,161.12a161.43,161.43,0,1,1-.19-322.85C345.33,94.43,418.08,167.15,417.38,256.21Z" transform="translate(-0.22 0.12)"/><path class="cls-13" d="M242,397.66c-22.73-.33-54.83-12.71-81.71-37.6C130,332,114.4,297,114.38,255.8c0-39.68,14.75-73.9,43.22-101.58,27.53-26.78,61-40.51,99.38-40.24a142.07,142.07,0,0,1,141,142.1C398,334.12,334,398,242,397.66Z" transform="translate(-0.22 0.12)"/><path class="cls-10" d="M379.54,255.86c.67,68-55.06,124.1-124,123.68a123.37,123.37,0,0,1-122.88-123.7c-.07-68.19,55.58-124,124.49-123.56C324.45,132.72,380.28,188.05,379.54,255.86Z" transform="translate(-0.22 0.12)"/><path class="cls-14" d="M152.46,255.74c0-56.57,47-105.49,107.24-103.57C313.62,153.88,360,197.72,360,256.07c-.06,57.88-46.6,104.08-104.87,103.64C198.71,359.28,152.46,313,152.46,255.74Z" transform="translate(-0.22 0.12)"/><path class="cls-10" d="M170.52,255.67c-.63-46.43,38.78-87.41,88.92-85.55,44.12,1.64,82.47,37.16,82.57,85.77.09,48.1-38.65,86.31-86.89,85.85A85.38,85.38,0,0,1,170.52,255.67Z" transform="translate(-0.22 0.12)"/></svg>